# xmcd
#
# Track frame offsets:
#	150
#	21545
#	59912
#	80850
#	98922
#	122430
#	142850
#	167797
#	187845
#	217300
#
# Disc length: 3213 seconds
#
# Revision: 3
# Processed by: cddbd v1.4PL0 Copyright (c) Steve Scherf et al.
# Submitted via: MusicManager 7.0.0.0 
#
DISCID=950c8b0a
DTITLE=Carl Weathersby - Don't Lay Your Blues On Me
DYEAR=1996
DGENRE=Blues
TTITLE0=Rock Your Town
TTITLE1=The Things The Blues Will Make YOu Do
TTITLE2=Killing Floor
TTITLE3=Your Love Is Everything
TTITLE4=All Your Affection Is Gone
TTITLE5=Don't Lay Your Blues On Me
TTITLE6=Same Thing
TTITLE7=Poverty
TTITLE8=Somebody Help Me
TTITLE9=Fannie Mae
EXTD=
EXTT0=
EXTT1=
EXTT2=
EXTT3=
EXTT4=
EXTT5=
EXTT6=
EXTT7=
EXTT8=
EXTT9=
PLAYORDER=
